<svg xmlns="http://www.w3.org/2000/svg" width="15" height="15" fill="none"><path fill="#FFCA05" d="M0 0h14.373v14.373H0z"/><path d="M10.397 3.239l.266-.094-.308-.766-1.607.569.203.505.007.018.065.161c.356.918 1.784 5.113-1.752 5.398v.001h-.183V9.03c-3.773-.305-1.878-5.087-1.69-5.54l.263-.617-1.596-.599-.323.76.285.107C2.09 6.483 2.323 8.096 2.323 8.096c.36 3.724 4.328 3.984 4.731 4.001v.001h.217s4.398-.077 4.779-4.002c0 0 .23-1.582-1.653-4.857z" fill="#000"/><ellipse cx="4.043" cy="5.506" rx=".343" ry=".322" fill="#FFCA05"/><ellipse cx="3.42" cy="7.791" rx=".343" ry=".322" fill="#FFCA05"/><ellipse cx="4.233" cy="10.03" rx=".343" ry=".322" fill="#FFCA05"/><ellipse cx="10.422" cy="5.506" rx=".358" ry=".322" fill="#FFCA05"/><ellipse cx="10.938" cy="7.791" rx=".358" ry=".322" fill="#FFCA05"/><ellipse cx="10.224" cy="10.03" rx=".358" ry=".322" fill="#FFCA05"/></svg>