<svg xmlns="http://www.w3.org/2000/svg" xmlns:xlink="http://www.w3.org/1999/xlink" width="65px" height="24px" viewBox="0 0 65 24" version="1.1">
    <!-- Generator: Sketch 52.5 (67469) - http://www.bohemiancoding.com/sketch -->
    <title>logo</title>
    <desc>Created with Sketch.</desc>
    <g id="logo" stroke="none" stroke-width="1" fill="none" fill-rule="evenodd">
        <g id="logo_text" transform="translate(-36.000000, 0.000000)" fill="#333333" fill-rule="nonzero">
            <path d="M48.6861093,5.71509649 L48.6874605,5.71509649 L48.6874605,18.9564758 L45.2115984,18.9564758 L44.9136674,17.8144068 L44.814357,17.8144068 C44.3840101,18.2447538 43.8874633,18.5923365 43.3247019,18.8571655 C42.7619404,19.1219944 42.215739,19.2544068 41.6860812,19.2544068 C40.6598692,19.2544068 39.766085,18.9895819 39.0047019,18.4599241 C38.2433188,17.9302663 37.6557384,17.1771703 37.2419433,16.2006137 C36.8281481,15.2240571 36.6212536,14.0737238 36.6212536,12.7495793 C36.6212536,11.4419865 36.8612512,10.2957911 37.3412536,9.31095856 C37.821256,8.32612605 38.4502152,7.56889224 39.2281501,7.03923442 C40.0060851,6.5095766 40.8253872,6.24475166 41.6860812,6.24475166 C42.3150498,6.24475166 42.8488376,6.34819891 43.2874605,6.55509649 C43.6731629,6.73703161 44.0492614,6.99895532 44.4157645,7.34087397 L44.4157645,3.95628855 C44.5531669,2.41791493 45.9765942,1.64872813 48.6860465,1.64872813 L48.6861093,1.64872813 L48.6861093,5.71509649 Z M44.4171157,14.0496018 L44.4157645,14.0496018 L44.4157645,10.3152757 C43.9690827,9.9188324 43.4067801,9.72061373 42.7288398,9.72061373 C42.2322856,9.72061373 41.8184966,9.96061133 41.4874605,10.4406137 C41.1564244,10.9206161 40.9909088,11.6737121 40.9909088,12.6999241 C40.9909088,13.7757915 41.1481486,14.5578527 41.4626329,15.046131 C41.7771172,15.5344093 42.2322851,15.7785448 42.8281501,15.7785448 C43.1757381,15.7785448 43.4736661,15.7123385 43.7219433,15.5799241 C43.9702204,15.4475096 44.2019422,15.2157878 44.4171157,14.8847517 L44.4171157,14.0496018 Z M49.1349344,23.2740508 L49.136903,23.2732752 C51.0808208,22.5071082 52.0399322,20.9191061 52.0142373,18.5092691 C52.0142975,18.4929219 52.0143571,18.4764825 52.0143571,18.4599241 L52.0640122,6.5426827 L56.3343571,6.5426827 L56.2847019,18.3109586 C56.2847019,19.8833802 55.9122918,21.1619881 55.1674605,22.1468206 C54.4226292,23.1316531 53.1895381,23.624062 51.4681502,23.624062 C50.541249,23.624062 49.7633257,23.5082011 49.1343571,23.2764758 L49.1349344,23.2740508 Z M100.328777,18.9435563 C97.6193247,18.9435563 96.1958974,18.1743695 96.058495,16.6359959 L96.058495,6.5426827 L100.32884,6.5426827 L100.32884,18.9435563 L100.328777,18.9435563 Z M54.2048203,5.00337235 C53.5427481,5.00337235 52.9965466,4.80475365 52.5661997,4.40751029 C52.1358527,4.01026692 51.9206824,3.4971686 51.9206824,2.86819994 C51.9206824,2.23923128 52.1358527,1.72613296 52.5661997,1.3288896 C52.9965466,0.93164623 53.5427481,0.733027527 54.2048203,0.733027527 C54.8668926,0.733027527 55.4130941,0.93164623 55.843441,1.3288896 C56.273788,1.72613296 56.4889583,2.23923128 56.4889583,2.86819994 C56.4889583,3.4971686 56.273788,4.01026692 55.843441,4.40751029 C55.4130941,4.80475365 54.8668926,5.00337235 54.2048203,5.00337235 Z M59.2640122,6.5426827 L63.5343571,6.5426827 L63.5343571,18.9564758 L59.2640122,18.9564758 L59.2640122,6.5426827 Z M61.3991847,5.00337235 C60.7371124,5.00337235 60.1909109,4.80475365 59.760564,4.40751029 C59.330217,4.01026692 59.1150467,3.4971686 59.1150467,2.86819994 C59.1150467,2.23923128 59.330217,1.72613296 59.760564,1.3288896 C60.1909109,0.93164623 60.7371124,0.733027527 61.3991847,0.733027527 C62.0612569,0.733027527 62.6074584,0.93164623 63.0378053,1.3288896 C63.4681523,1.72613296 63.6833226,2.23923128 63.6833226,2.86819994 C63.6833226,3.4971686 63.4681523,4.01026692 63.0378053,4.40751029 C62.6074584,4.80475365 62.0612569,5.00337235 61.3991847,5.00337235 Z M66.6626329,6.5426827 L70.138495,6.5426827 L70.436426,8.03233787 L70.5357364,8.03233787 C71.1150496,7.48612824 71.7191815,7.05164983 72.3481502,6.7288896 C72.9771188,6.40612936 73.6805601,6.24475166 74.458495,6.24475166 C75.7826396,6.24475166 76.7591815,6.68750586 77.3881502,7.57302753 C78.0171188,8.4585492 78.3315985,9.70405398 78.3315985,11.3095793 L78.3315985,18.9564758 L74.0612536,18.9564758 L74.0612536,11.8557861 C74.0612536,11.094403 73.9660822,10.5730289 73.7757364,10.2916482 C73.5853906,10.0102675 73.2667731,9.86957925 72.8198743,9.86957925 C72.4557346,9.86957925 72.141255,9.93992338 71.876426,10.0806137 C71.6115971,10.2213041 71.2971175,10.4654396 70.9329778,10.8130275 L70.9329778,18.9564758 L66.6626329,18.9564758 L66.6626329,6.5426827 Z M81.360564,6.5426827 L84.8364261,6.5426827 L85.1343571,8.03233787 L85.2336674,8.03233787 C85.8129807,7.48612824 86.4171126,7.05164983 87.0460812,6.7288896 C87.6750499,6.40612936 88.3784911,6.24475166 89.1564261,6.24475166 C90.4805706,6.24475166 91.4571126,6.68750586 92.0860812,7.57302753 C92.7150499,8.4585492 93.0295295,9.70405398 93.0295295,11.3095793 L93.0295295,18.9564758 L88.7591847,18.9564758 L88.7591847,11.8557861 C88.7591847,11.094403 88.6640132,10.5730289 88.4736674,10.2916482 C88.2833217,10.0102675 87.9647041,9.86957925 87.5178054,9.86957925 C87.1536656,9.86957925 86.839186,9.93992338 86.5743571,10.0806137 C86.3095282,10.2213041 85.9950486,10.4654396 85.6309088,10.8130275 L85.6309088,18.9564758 L81.360564,18.9564758 L81.360564,6.5426827 Z M98.1936674,5.00337235 C97.5315952,5.00337235 96.9853937,4.80475365 96.5550467,4.40751029 C96.1246998,4.01026692 95.9095295,3.4971686 95.9095295,2.86819994 C95.9095295,2.23923128 96.1246998,1.72613296 96.5550467,1.3288896 C96.9853937,0.93164623 97.5315952,0.733027527 98.1936674,0.733027527 C98.8557397,0.733027527 99.4019411,0.93164623 99.8322881,1.3288896 C100.262635,1.72613296 100.477805,2.23923128 100.477805,2.86819994 C100.477805,3.4971686 100.262635,4.01026692 99.8322881,4.40751029 C99.4019411,4.80475365 98.8557397,5.00337235 98.1936674,5.00337235 Z" id="logo"/>
        </g>
    </g>
</svg>